<svg width="165" height="42" viewBox="0 0 165 42" fill="none" xmlns="http://www.w3.org/2000/svg">
<path d="M23.7083 32.8097C23.5646 32.9525 23.373 33.0478 23.1336 33.0478C22.8941 33.0478 22.7025 32.9525 22.5588 32.8097C22.4151 32.6668 22.3193 32.4763 22.3193 32.2382C22.3193 32.0001 22.4151 31.8097 22.5588 31.6668C22.7025 31.5239 22.8941 31.4287 23.1336 31.4287C23.373 31.4287 23.5646 31.5239 23.7083 31.6668C23.852 31.8097 23.9478 32.0001 23.9478 32.2382C23.9478 32.4763 23.852 32.6668 23.7083 32.8097Z" fill="#666666"/>
<path d="M112.842 32.7144C112.698 32.8573 112.507 32.9525 112.267 32.9525C112.028 32.9525 111.836 32.8573 111.692 32.7144C111.549 32.5716 111.453 32.3811 111.453 32.143C111.453 31.9049 111.549 31.7144 111.692 31.5716C111.836 31.4287 112.028 31.3335 112.267 31.3335C112.507 31.3335 112.698 31.4287 112.842 31.5716C112.985 31.7144 113.081 31.9049 113.081 32.143C113.081 32.3811 112.985 32.5716 112.842 32.7144Z" fill="#E66201"/>
<path d="M65.2815 16.2381C64.8026 16.2381 64.18 16.1905 63.3657 16.1429V24.9048H59.103V1.09524C61.9289 0.952381 63.6052 0.904762 64.0842 0.904762C67.8679 0.904762 70.6458 1.47619 72.3701 2.61905C74.1422 3.76191 75.0043 5.57143 75.0043 8.04762C75.0043 13.5238 71.7953 16.2381 65.2815 16.2381ZM64.6589 4.66667C64.2278 4.66667 63.7968 4.71429 63.3657 4.76191V12.381C64.0842 12.4762 64.6589 12.4762 65.09 12.4762C67.0537 12.4762 68.4426 12.1429 69.3527 11.5238C70.2627 10.8571 70.6937 9.80953 70.6937 8.38095C70.6937 5.90476 68.6821 4.66667 64.6589 4.66667ZM90.9056 24.9048V14.1429C90.9056 13.0476 90.5704 12.1905 89.8998 11.5714C89.2293 10.9048 88.3193 10.5714 87.2656 10.5714C86.595 10.5714 85.9245 10.7619 85.2061 11.0952C84.5355 11.4762 84.0087 11.8571 83.7213 12.3333V24.8571H79.5544V1L83.7213 0V8.57143C84.775 7.61905 86.2598 7.14286 88.0798 7.14286C90.283 7.14286 91.9593 7.76191 93.2046 8.95238C94.402 10.1429 95.0246 11.9048 95.0246 14.1429V24.9048H90.9056ZM110.543 11.2857C109.824 10.8095 109.01 10.5714 108.148 10.5714C107.19 10.5714 106.376 11 105.61 11.8571C104.891 12.7143 104.508 13.7619 104.508 15V24.9048H100.437V7.47619H104.508V9.04762C105.657 7.76191 107.19 7.14286 109.058 7.14286C110.447 7.14286 111.501 7.33333 112.267 7.76191L110.543 11.2857ZM128.456 25.0476C128.025 25.1905 127.546 25.2381 127.019 25.2381C126.444 25.2381 125.917 25 125.438 24.5714C124.959 24.1429 124.672 23.6667 124.48 23.1429C124.097 23.7619 123.475 24.2381 122.517 24.6191C121.607 25 120.649 25.1905 119.643 25.1905C117.775 25.1905 116.29 24.7143 115.189 23.7619C114.087 22.8095 113.56 21.4762 113.56 19.7619C113.56 17.7619 114.327 16.1429 115.859 15.0476C117.392 13.9048 119.547 13.3333 122.373 13.3333C122.852 13.3333 123.427 13.4286 124.097 13.5714C124.097 11.5238 122.804 10.4762 120.17 10.4762C118.637 10.4762 117.344 10.7143 116.29 11.2381L115.428 8.09524C116.817 7.42857 118.493 7.09524 120.457 7.09524C123.139 7.09524 125.103 7.71429 126.348 8.90476C127.594 10.0952 128.216 12.4286 128.216 15.7619V19.4762C128.216 21.8095 128.695 23.2381 129.605 23.8571C129.222 24.5238 128.839 24.9048 128.456 25.0476ZM124.097 16.7143C123.379 16.5714 122.852 16.5238 122.517 16.5238C119.308 16.5238 117.679 17.5714 117.679 19.6667C117.679 21.2381 118.589 22 120.409 22C122.852 22 124.097 20.7619 124.097 18.3333V16.7143ZM138.849 10.381C137.412 10.381 136.694 10.9524 136.694 12.0952C136.694 12.5238 136.933 12.9524 137.412 13.2857C137.891 13.6667 138.897 14.1429 140.43 14.7143C141.962 15.3333 143.064 16.0476 143.734 16.9048C144.405 17.7619 144.74 18.8095 144.74 20C144.74 21.6191 144.118 22.9048 142.92 23.8095C141.723 24.7143 140.094 25.1905 137.987 25.1905C136.837 25.1905 135.88 25.0952 135.161 24.9048C134.443 24.7143 133.533 24.3333 132.431 23.7619L133.868 20.5238C135.113 21.4762 136.454 21.9524 137.987 21.9524C139.567 21.9524 140.382 21.381 140.382 20.2381C140.382 19.5714 140.142 19.0476 139.663 18.619C139.184 18.1905 138.226 17.7143 136.885 17.1429C133.868 15.9048 132.335 14.1429 132.335 11.9048C132.335 10.381 132.91 9.2381 134.059 8.38095C135.209 7.52381 136.694 7.14286 138.514 7.14286C140.334 7.14286 142.058 7.57143 143.639 8.38095L142.441 11.5238C141.675 10.7619 140.43 10.381 138.849 10.381ZM164.665 17.4286H152.164C152.26 18.8095 152.739 19.9048 153.601 20.6667C154.463 21.4286 155.66 21.8095 157.193 21.8095C159.061 21.8095 160.498 21.3333 161.456 20.381L163.036 23.4762C161.599 24.6191 159.444 25.2381 156.57 25.2381C153.888 25.2381 151.781 24.4762 150.248 22.9048C148.716 21.3333 147.901 19.1905 147.901 16.381C147.901 13.6191 148.763 11.4286 150.44 9.71429C152.164 8 154.176 7.14286 156.57 7.14286C159.109 7.14286 161.168 7.90476 162.701 9.42857C164.234 10.9524 165 12.8571 165 15.1905C165 15.6667 164.904 16.4286 164.665 17.4286ZM156.666 10.5238C154.319 10.5238 152.882 11.8095 152.308 14.3333H160.929C160.641 11.8095 159.205 10.5238 156.666 10.5238Z" fill="#666666"/>
<path d="M7.18433 39.6666V31.4761H8.62119V39.6666H7.18433Z" fill="#666666"/>
<path d="M14.1292 39.6665V36.1903C14.1292 35.6665 14.0334 35.2856 13.8418 35.0951C13.6502 34.857 13.315 34.7618 12.8839 34.7618C12.6923 34.7618 12.4528 34.8094 12.2134 34.9522C11.9739 35.0475 11.7823 35.1903 11.6865 35.3808V39.7141H10.2975V33.6665H11.3034L11.5428 34.238C11.926 33.8094 12.5007 33.5713 13.2192 33.5713C13.9376 33.5713 14.5124 33.7618 14.8955 34.1903C15.3266 34.6189 15.5182 35.1903 15.5182 35.9522V39.6189H14.1292V39.6665Z" fill="#666666"/>
<path d="M18.8708 34.6668C18.3919 34.6668 18.1524 34.8573 18.1524 35.2382C18.1524 35.3811 18.2482 35.5239 18.3919 35.6668C18.5356 35.8096 18.9187 35.9525 19.4456 36.143C19.9724 36.3334 20.3556 36.6192 20.5951 36.9049C20.8345 37.1906 20.9303 37.5715 20.9303 37.9525C20.9303 38.5239 20.7388 38.9525 20.3077 39.2382C19.8766 39.5715 19.3498 39.7144 18.6314 39.7144C18.2482 39.7144 17.9129 39.6668 17.6734 39.6192C17.434 39.5715 17.0987 39.4287 16.7634 39.2382L17.2424 38.143C17.6734 38.4763 18.1524 38.6192 18.6792 38.6192C19.2061 38.6192 19.4935 38.4287 19.4935 38.0477C19.4935 37.8096 19.3977 37.6192 19.254 37.4763C19.1103 37.3334 18.775 37.143 18.2961 36.9525C17.2424 36.5239 16.7634 35.9049 16.7634 35.143C16.7634 34.6192 16.955 34.2382 17.3382 33.9525C17.7213 33.6668 18.2482 33.5239 18.8708 33.5239C19.4935 33.5239 20.0682 33.6668 20.643 33.9525L20.1161 35.0477C19.8287 34.8096 19.3977 34.6668 18.8708 34.6668Z" fill="#666666"/>
<path d="M23.8041 39.6665H22.3672V34.8094H21.6009V33.6665H23.8041V39.6665Z" fill="#666666"/>
<path d="M28.2104 38.4285C28.0189 38.4285 27.7794 38.4761 27.492 38.5237C27.2046 38.5714 27.0131 38.619 26.9173 38.619C26.6778 38.619 26.5341 38.5237 26.5341 38.3809C26.5341 38.2856 26.6299 38.1904 26.7736 38.1428C26.9652 38.0475 27.061 37.9999 27.061 37.9999L27.3004 38.0475C27.492 38.0475 27.5878 38.0952 27.6836 38.0952C28.3062 38.0952 28.8331 37.9047 29.2641 37.4761C29.6952 37.0475 29.8868 36.5237 29.8868 35.8571C29.8868 35.3809 29.791 34.9523 29.5515 34.619L30.2221 34.1428L29.2641 33.2856L28.7373 33.8571C28.3541 33.6666 27.9231 33.5714 27.3962 33.5714C26.7257 33.5714 26.1509 33.7618 25.672 34.1904C25.193 34.619 24.9536 35.1428 24.9536 35.7618C24.9536 36.5714 25.2888 37.1904 25.9594 37.619C25.7678 37.7142 25.5762 37.8571 25.3846 38.0475C25.2409 38.238 25.1451 38.4285 25.1451 38.619C25.1451 39.2856 25.6241 39.6666 26.582 39.6666C26.7257 39.6666 26.9652 39.6666 27.3004 39.619C27.5878 39.5714 27.8273 39.5714 28.0189 39.5714C28.5936 39.5714 28.881 39.7618 28.881 40.0952C28.881 40.2856 28.7373 40.4761 28.4978 40.5714C28.2583 40.6666 27.9231 40.7618 27.492 40.7618C26.8694 40.7618 26.3425 40.5237 25.8636 40.0952L24.9536 41.1904C25.7199 41.7142 26.5341 41.9999 27.4441 41.9999C28.2104 41.9999 28.881 41.8095 29.4078 41.4761C29.9347 41.1428 30.2221 40.6666 30.2221 40.0475C30.2699 38.9523 29.5994 38.4285 28.2104 38.4285ZM26.6778 34.9999C26.8694 34.8095 27.1567 34.7142 27.4441 34.7142C27.7315 34.7142 28.0189 34.8095 28.2104 35.0475C28.402 35.238 28.4978 35.5237 28.4978 35.8095C28.4978 36.1904 28.402 36.4761 28.2104 36.6666C28.0189 36.8571 27.7794 36.9999 27.4441 36.9999C27.1088 36.9999 26.8694 36.9047 26.6299 36.6666C26.4383 36.4761 26.3425 36.1904 26.3425 35.8095C26.3904 35.4285 26.4862 35.1904 26.6778 34.9999Z" fill="#666666"/>
<path d="M35.1074 39.6666V36C35.1074 35.619 35.0116 35.3333 34.7722 35.0952C34.5327 34.8571 34.2453 34.7619 33.8621 34.7619C33.6227 34.7619 33.3832 34.8095 33.1437 34.9524C32.9042 35.0952 32.7605 35.2381 32.6169 35.3809V39.6666H31.18V31.4285L32.6169 31.0952V34.0476C33 33.7143 33.479 33.5714 34.1016 33.5714C34.8679 33.5714 35.4427 33.7619 35.8738 34.1905C36.3048 34.619 36.4964 35.1905 36.4964 35.9524V39.619H35.1074V39.6666Z" fill="#666666"/>
<path d="M39.849 38.3334C39.9927 38.5238 40.2322 38.6191 40.5675 38.6191C40.9027 38.6191 41.238 38.5238 41.5254 38.3334V39.6191C41.1901 39.7143 40.759 39.8095 40.1364 39.8095C39.5617 39.8095 39.0827 39.6191 38.7474 39.2857C38.4122 38.9524 38.2685 38.4762 38.2685 37.8572V34.8095H37.55V33.6667H38.2685V32.4286L39.6575 31.9048V33.6191H41.2859V34.7619H39.6575V37.381C39.6096 37.8572 39.7053 38.1429 39.849 38.3334Z" fill="#666666"/>
<path d="M44.3991 34.6668C43.9202 34.6668 43.6807 34.8573 43.6807 35.2382C43.6807 35.3811 43.7765 35.5239 43.9202 35.6668C44.0639 35.8096 44.447 35.9525 44.9739 36.143C45.5007 36.3334 45.8839 36.6192 46.1234 36.9049C46.3629 37.1906 46.4587 37.5715 46.4587 37.9525C46.4587 38.5239 46.2671 38.9525 45.836 39.2382C45.405 39.5715 44.8781 39.7144 44.1597 39.7144C43.7765 39.7144 43.4412 39.6668 43.2018 39.6192C42.9623 39.5715 42.627 39.4287 42.2917 39.2382L42.7707 38.143C43.2018 38.4763 43.6807 38.6192 44.2076 38.6192C44.7344 38.6192 45.0218 38.4287 45.0218 38.0477C45.0218 37.8096 44.926 37.6192 44.7823 37.4763C44.6386 37.3334 44.3034 37.143 43.8244 36.9525C42.7707 36.5239 42.2917 35.9049 42.2917 35.143C42.2917 34.6192 42.4833 34.2382 42.8665 33.9525C43.2497 33.6668 43.7765 33.5239 44.3991 33.5239C45.0218 33.5239 45.5965 33.6668 46.1713 33.9525L45.7881 35.0477C45.3571 34.8096 44.926 34.6668 44.3991 34.6668Z" fill="#666666"/>
<path d="M54.3614 32.4764C54.074 32.3811 53.8345 32.3335 53.643 32.3335C53.3556 32.3335 53.164 32.4288 52.9724 32.6669C52.7808 32.9049 52.685 33.1907 52.685 33.524C52.685 33.5716 52.685 33.6192 52.685 33.6669H53.9303V34.8097H52.685V39.6192H51.2961V34.8097H50.434V33.6669H51.2961C51.344 32.9526 51.5356 32.3335 51.9666 31.9049C52.3498 31.4764 52.8766 31.2383 53.5472 31.2383C53.8824 31.2383 54.2656 31.3335 54.7446 31.4764L54.3614 32.4764Z" fill="#666666"/>
<path d="M58.7199 34.9525C58.4804 34.8096 58.193 34.7144 57.9057 34.7144C57.5704 34.7144 57.283 34.8573 57.0436 35.143C56.8041 35.4287 56.6604 35.8096 56.6604 36.2382V39.6192H55.2714V33.6668H56.6604V34.1906C57.0436 33.762 57.5704 33.5239 58.2409 33.5239C58.7199 33.5239 59.1031 33.6192 59.3425 33.762L58.7199 34.9525Z" fill="#666666"/>
<path d="M64.7547 34.3808C64.2279 33.8094 63.5573 33.5713 62.6473 33.5713C61.7852 33.5713 61.0668 33.857 60.5399 34.4284C60.0131 34.9999 59.7257 35.7618 59.7257 36.6665C59.7257 37.6189 59.9652 38.3808 60.492 38.9522C61.0189 39.5237 61.6894 39.8094 62.5994 39.8094C63.5094 39.8094 64.18 39.5237 64.7068 38.9522C65.2337 38.3808 65.4732 37.6189 65.4732 36.6665C65.5211 35.6665 65.2816 34.9522 64.7547 34.3808ZM63.701 38.0951C63.4616 38.4284 63.0784 38.6189 62.6473 38.6189C61.6894 38.6189 61.2105 37.9522 61.2105 36.6665C61.2105 36.0475 61.3542 35.5713 61.5936 35.238C61.8331 34.9046 62.2163 34.7141 62.6473 34.7141C63.6052 34.7141 64.0842 35.3808 64.0842 36.6665C64.0842 37.2856 63.9405 37.7618 63.701 38.0951Z" fill="#666666"/>
<path d="M73.6154 39.6665V35.9046C73.6154 35.1427 73.2801 34.7141 72.5617 34.7141C72.3701 34.7141 72.1306 34.7618 71.939 34.9046C71.7475 35.0475 71.6038 35.1903 71.508 35.3332V39.6665H70.119V35.7141C70.119 35.4284 70.0232 35.1903 69.8316 34.9999C69.6401 34.8094 69.4006 34.7618 69.0653 34.7618C68.8737 34.7618 68.6821 34.8094 68.4906 34.9522C68.299 35.0951 68.1553 35.238 68.0595 35.3808V39.6665H66.6705V33.6665H67.6284L67.9158 34.1903C68.299 33.7618 68.8258 33.5713 69.4485 33.5713C70.2627 33.5713 70.8374 33.8094 71.2685 34.238C71.4601 34.0475 71.6996 33.9046 71.9869 33.7618C72.3222 33.6665 72.6096 33.5713 72.9448 33.5713C73.6154 33.5713 74.1422 33.7618 74.5254 34.1427C74.9086 34.5237 75.1001 35.0475 75.1001 35.7141V39.6665H73.6154Z" fill="#666666"/>
<path d="M83.865 31.4285V33.8095C83.4819 33.619 83.0987 33.5238 82.6198 33.5238C81.8055 33.5238 81.0871 33.8095 80.5603 34.4285C79.9855 35 79.746 35.8095 79.746 36.7143C79.746 37.6666 79.9855 38.3809 80.4645 38.9047C80.9434 39.4285 81.614 39.7143 82.4282 39.7143C82.7156 39.7143 83.0029 39.6666 83.2903 39.5714C83.5777 39.4762 83.7693 39.3809 83.865 39.2381V39.619H85.254V31.0952L83.865 31.4285ZM83.865 38.2381C83.8172 38.3333 83.6735 38.3809 83.4819 38.4762C83.2903 38.5714 83.0987 38.619 83.0029 38.619C81.8055 38.619 81.1829 38 81.1829 36.7619C81.1829 36.1428 81.3266 35.619 81.614 35.2857C81.9013 34.9524 82.3324 34.7619 82.9071 34.7619C83.2424 34.7619 83.5298 34.9047 83.865 35.1428V38.2381Z" fill="#666666"/>
<path d="M91.2888 37.8096V36.5239C91.2888 35.3811 91.0972 34.5715 90.6662 34.143C90.2351 33.7144 89.5646 33.5239 88.6546 33.5239C87.984 33.5239 87.4093 33.6192 86.9303 33.8573L87.2177 34.9525C87.553 34.762 88.0319 34.6668 88.5588 34.6668C89.4688 34.6668 89.8999 35.0001 89.8999 35.7144C89.6604 35.6668 89.4688 35.6192 89.3251 35.6192C88.3672 35.6192 87.6009 35.8096 87.1219 36.1906C86.5951 36.5715 86.3556 37.143 86.3556 37.8096C86.3556 38.3811 86.5472 38.8573 86.9303 39.1906C87.3135 39.5239 87.7925 39.6668 88.463 39.6668C88.7983 39.6668 89.1335 39.6192 89.4688 39.4763C89.8041 39.3335 89.9956 39.1906 90.1393 38.9525C90.1872 39.143 90.283 39.2858 90.4746 39.4287C90.6183 39.5715 90.8099 39.6668 91.0015 39.6668C91.193 39.6668 91.3367 39.6668 91.4804 39.6192C91.6241 39.5715 91.7678 39.4287 91.8636 39.2382C91.4325 39.0954 91.2888 38.6192 91.2888 37.8096ZM89.8999 37.3811C89.8999 38.2382 89.4688 38.6192 88.6546 38.6192C88.0319 38.6192 87.6967 38.3335 87.6967 37.8096C87.6967 37.0954 88.2714 36.7144 89.373 36.7144C89.4688 36.7144 89.6604 36.762 89.8999 36.8096V37.3811Z" fill="#666666"/>
<path d="M94.5936 38.3334C94.7373 38.5238 94.9768 38.6191 95.312 38.6191C95.6473 38.6191 95.9826 38.5238 96.2699 38.3334V39.6191C95.9347 39.7143 95.5036 39.8095 94.881 39.8095C94.2583 39.8095 93.8273 39.6191 93.492 39.2857C93.1567 38.9524 93.013 38.4762 93.013 37.8572V34.8095H92.2946V33.6667H93.013V32.4286L94.402 31.9048V33.6191H96.0305V34.7619H94.402V37.381C94.402 37.8572 94.4978 38.1429 94.5936 38.3334Z" fill="#666666"/>
<path d="M101.97 37.8096V36.5239C101.97 35.3811 101.778 34.5715 101.347 34.143C100.916 33.7144 100.245 33.5239 99.3353 33.5239C98.6647 33.5239 98.09 33.6192 97.611 33.8573L97.8984 34.9525C98.2337 34.762 98.7126 34.6668 99.2395 34.6668C100.149 34.6668 100.581 35.0001 100.581 35.7144C100.341 35.6668 100.149 35.6192 100.006 35.6192C99.0479 35.6192 98.2816 35.8096 97.8026 36.1906C97.2758 36.5715 97.0363 37.143 97.0363 37.8096C97.0363 38.3811 97.2279 38.8573 97.611 39.1906C97.9942 39.5239 98.4731 39.6668 99.1437 39.6668C99.479 39.6668 99.8142 39.6192 100.149 39.4763C100.485 39.3335 100.676 39.1906 100.82 38.9525C100.868 39.143 100.964 39.2858 101.155 39.4287C101.299 39.5715 101.491 39.6668 101.682 39.6668C101.874 39.6668 102.017 39.6668 102.161 39.6192C102.305 39.5715 102.448 39.4287 102.544 39.2382C102.113 39.0954 101.97 38.6192 101.97 37.8096ZM100.581 37.3811C100.581 38.2382 100.149 38.6192 99.3353 38.6192C98.7126 38.6192 98.3774 38.3335 98.3774 37.8096C98.3774 37.0954 98.9521 36.7144 100.054 36.7144C100.197 36.7144 100.341 36.762 100.581 36.8096V37.3811Z" fill="#666666"/>
<path d="M105.418 40.3809C105.179 40.7619 104.7 41.2381 103.933 41.7619L103.454 41.1428C104.125 40.619 104.46 40.2381 104.46 39.9524C104.46 39.8571 104.412 39.7143 104.364 39.619C104.029 39.4285 103.837 39.1905 103.837 38.9047C103.837 38.6666 103.933 38.4762 104.125 38.3333C104.316 38.1905 104.556 38.0952 104.843 38.0952C105.083 38.0952 105.322 38.1905 105.514 38.3809C105.705 38.5714 105.801 38.8095 105.801 39.0476C105.753 39.5238 105.657 39.9524 105.418 40.3809Z" fill="#666666"/>
<path d="M112.938 39.6665H111.549V34.8094H110.782V33.6665H112.938V39.6665Z" fill="#E66201"/>
<path d="M118.446 39.6665V36.1903C118.446 35.6665 118.35 35.2856 118.158 35.0951C117.967 34.857 117.631 34.7618 117.2 34.7618C117.009 34.7618 116.769 34.8094 116.53 34.9522C116.29 35.0475 116.099 35.1903 116.003 35.3808V39.7141H114.614V33.6665H115.62L115.859 34.238C116.242 33.8094 116.817 33.5713 117.536 33.5713C118.254 33.5713 118.829 33.7618 119.212 34.1903C119.643 34.6189 119.835 35.1903 119.835 35.9522V39.6189H118.446V39.6665Z" fill="#E66201"/>
<path d="M130.755 39.7617H130.228L128.599 36.0951L126.923 39.7617H126.396L124.145 33.6665H125.63L126.827 37.2379L128.312 33.6665H128.791L130.324 37.2379L131.617 33.6665H133.006L130.755 39.7617Z" fill="#E66201"/>
<path d="M138.466 34.3808C137.939 33.8094 137.269 33.5713 136.359 33.5713C135.496 33.5713 134.778 33.857 134.251 34.4284C133.724 34.9999 133.437 35.7618 133.437 36.6665C133.437 37.6189 133.676 38.3808 134.203 38.9522C134.73 39.5237 135.401 39.8094 136.311 39.8094C137.221 39.8094 137.891 39.5237 138.418 38.9522C138.945 38.3808 139.184 37.6189 139.184 36.6665C139.232 35.6665 138.993 34.9522 138.466 34.3808ZM137.364 38.0951C137.125 38.4284 136.742 38.6189 136.311 38.6189C135.353 38.6189 134.874 37.9522 134.874 36.6665C134.874 36.0475 135.017 35.5713 135.257 35.238C135.496 34.9046 135.88 34.7141 136.311 34.7141C137.269 34.7141 137.747 35.3808 137.747 36.6665C137.747 37.2856 137.652 37.7618 137.364 38.0951Z" fill="#E66201"/>
<path d="M143.83 34.9525C143.591 34.8096 143.303 34.7144 143.016 34.7144C142.681 34.7144 142.393 34.8573 142.154 35.143C141.914 35.4287 141.771 35.8096 141.771 36.2382V39.6192H140.334V33.6668H141.723V34.1906C142.106 33.762 142.633 33.5239 143.303 33.5239C143.782 33.5239 144.165 33.6192 144.405 33.762L143.83 34.9525Z" fill="#E66201"/>
<path d="M149.147 31.4285V33.8095C148.763 33.619 148.38 33.5238 147.901 33.5238C147.087 33.5238 146.369 33.8095 145.842 34.4285C145.267 35 145.028 35.8095 145.028 36.7143C145.028 37.6666 145.267 38.3809 145.746 38.9047C146.225 39.4285 146.896 39.7143 147.71 39.7143C147.997 39.7143 148.284 39.6666 148.572 39.5714C148.859 39.4762 149.051 39.3809 149.147 39.2381V39.619H150.536V31.0952L149.147 31.4285ZM149.147 38.2381C149.099 38.3333 148.955 38.3809 148.763 38.4762C148.572 38.5714 148.38 38.619 148.284 38.619C147.087 38.619 146.464 38 146.464 36.7619C146.464 36.1428 146.608 35.619 146.896 35.2857C147.183 34.9524 147.614 34.7619 148.189 34.7619C148.524 34.7619 148.811 34.9047 149.147 35.1428V38.2381Z" fill="#E66201"/>
<path d="M153.745 34.6668C153.266 34.6668 153.026 34.8573 153.026 35.2382C153.026 35.3811 153.122 35.5239 153.266 35.6668C153.409 35.8096 153.792 35.9525 154.319 36.143C154.846 36.3334 155.229 36.6192 155.469 36.9049C155.708 37.1906 155.804 37.5715 155.804 37.9525C155.804 38.5239 155.612 38.9525 155.181 39.2382C154.75 39.5715 154.224 39.7144 153.505 39.7144C153.122 39.7144 152.787 39.6668 152.547 39.6192C152.308 39.5715 151.972 39.4287 151.637 39.2382L152.116 38.143C152.547 38.4763 153.026 38.6192 153.553 38.6192C154.08 38.6192 154.367 38.4287 154.367 38.0477C154.367 37.8096 154.271 37.6192 154.128 37.4763C153.984 37.3334 153.649 37.143 153.17 36.9525C152.116 36.5239 151.637 35.9049 151.637 35.143C151.637 34.6192 151.829 34.2382 152.212 33.9525C152.595 33.6668 153.122 33.5239 153.745 33.5239C154.367 33.5239 154.942 33.6668 155.517 33.9525L155.134 35.0477C154.702 34.8096 154.271 34.6668 153.745 34.6668Z" fill="#E66201"/>
<path d="M158.821 39.6191C158.63 39.8095 158.39 39.9048 158.103 39.9048C157.816 39.9048 157.576 39.8095 157.385 39.6191C157.193 39.4286 157.097 39.1905 157.097 38.9048C157.097 38.6191 157.193 38.381 157.385 38.1905C157.576 38 157.816 37.9048 158.103 37.9048C158.39 37.9048 158.63 38 158.821 38.1905C159.013 38.381 159.109 38.6191 159.109 38.9048C159.109 39.1905 159.013 39.4286 158.821 39.6191Z" fill="#E66201"/>
<path d="M28.6415 7.66699H36.4963L43.4412 17.7146L50.386 7.66699H66.2394V9.23842H57.0914L46.746 23.7146C46.746 23.7146 45.5007 25.4289 43.3454 25.3813C43.3454 25.3813 41.7648 25.5718 40.2801 23.8575L28.6415 7.66699Z" fill="#E66201"/>
<path d="M23.373 7.71447H27.8273V8.47638H23.4209L20.9782 10.9049L18.1524 8.09542L20.9782 5.23828L23.373 7.71447Z" fill="#E66201"/>
<path d="M27.3962 13.6669H31.8505V14.3812H27.4441L25.0014 16.8097L22.1756 14.0002L25.0014 11.1431L27.3962 13.6669Z" fill="#E66201"/>
<path d="M17.0987 12.048H21.553V12.8099H17.1466L14.7039 15.1908L11.8781 12.3813L14.7039 9.57178L17.0987 12.048Z" fill="#E66201"/>
<path d="M14.6082 18.4764H17.1945V18.9526H14.6082L13.1713 20.3336L11.5428 18.7145L13.1713 17.0479L14.6082 18.4764Z" fill="#E66201"/>
<path d="M23.4209 21.0477H26.0552V21.5239H23.4688L22.032 22.9049L20.4035 21.2858L22.032 19.6191L23.4209 21.0477Z" fill="#E66201"/>
<path d="M9.91437 9.85728H12.5007V10.3335H9.91437L8.47751 11.7144L6.84906 10.0954L8.5254 8.42871L9.91437 9.85728Z" fill="#E66201"/>
<path d="M12.8839 6.80978H14.4165V7.04788H12.8839L12.0218 7.8574L11.0638 6.90502L12.0696 5.95264L12.8839 6.80978Z" fill="#E66201"/>
<path d="M3.06531 14.3812H5.65167V14.8574H3.06531L1.62845 16.2383L0 14.6193L1.62845 12.9526L3.06531 14.3812Z" fill="#E66201"/>
</svg>
